<?xml version="1.0" encoding="UTF-8"?>
<svg version="1.1" xmlns="http://www.w3.org/2000/svg" width="536" height="466">
<path d="M0 0 C168.3 0 336.6 0 510 0 C510 46.2 510 92.4 510 140 C341.7 140 173.4 140 0 140 C0 93.8 0 47.6 0 0 Z " fill="#000101" transform="translate(14,320)"/>
<path d="M0 0 C80.85 0 161.7 0 245 0 C245 59.4 245 118.8 245 180 C164.15 180 83.3 180 0 180 C0 120.6 0 61.2 0 0 Z " fill="#000000" transform="translate(146,71)"/>
<path d="M0 0 C35.64 0 71.28 0 108 0 C108 59.4 108 118.8 108 180 C72.36 180 36.72 180 0 180 C0 120.6 0 61.2 0 0 Z " fill="#000000" transform="translate(25,71)"/>
<path d="M0 0 C34.65 0 69.3 0 105 0 C105 59.4 105 118.8 105 180 C70.35 180 35.7 180 0 180 C0 120.6 0 61.2 0 0 Z " fill="#000000" transform="translate(403,71)"/>
<path d="M0 0 C160.05 0 320.1 0 485 0 C485 4.62 485 9.24 485 14 C476.42 14 467.84 14 459 14 C459 22.25 459 30.5 459 39 C467.58 39 476.16 39 485 39 C485 43.95 485 48.9 485 54 C325.28 54 165.56 54 1 54 C1 49.05 1 44.1 1 39 C3.64 39 6.28 39 9 39 C9 30.75 9 22.5 9 14 C6.03 14 3.06 14 0 14 C0 9.38 0 4.76 0 0 Z M30 14 C30 22.25 30 30.5 30 39 C42.87 39 55.74 39 69 39 C69 30.75 69 22.5 69 14 C56.13 14 43.26 14 30 14 Z M90 14 C90 22.25 90 30.5 90 39 C103.2 39 116.4 39 130 39 C130 30.75 130 22.5 130 14 C116.8 14 103.6 14 90 14 Z M151 14 C151 22.25 151 30.5 151 39 C163.87 39 176.74 39 190 39 C190 30.75 190 22.5 190 14 C177.13 14 164.26 14 151 14 Z M211 14 C211 22.25 211 30.5 211 39 C226.18 39 241.36 39 257 39 C257 30.75 257 22.5 257 14 C241.82 14 226.64 14 211 14 Z M278 14 C278 22.25 278 30.5 278 39 C290.87 39 303.74 39 317 39 C317 30.75 317 22.5 317 14 C304.13 14 291.26 14 278 14 Z M338 14 C338 22.25 338 30.5 338 39 C351.2 39 364.4 39 378 39 C378 30.75 378 22.5 378 14 C364.8 14 351.6 14 338 14 Z M399 14 C399 22.25 399 30.5 399 39 C411.87 39 424.74 39 438 39 C438 30.75 438 22.5 438 14 C425.13 14 412.26 14 399 14 Z " fill="#000000" transform="translate(24,262)"/>
<path d="M0 0 C160.05 0 320.1 0 485 0 C485 4.29 485 8.58 485 13 C476.42 13 467.84 13 459 13 C459 21.58 459 30.16 459 39 C467.58 39 476.16 39 485 39 C485 43.62 485 48.24 485 53 C325.28 53 165.56 53 1 53 C1 48.38 1 43.76 1 39 C3.64 39 6.28 39 9 39 C9 30.42 9 21.84 9 13 C6.03 13 3.06 13 0 13 C0 8.71 0 4.42 0 0 Z M30 13 C30 21.58 30 30.16 30 39 C42.87 39 55.74 39 69 39 C69 30.42 69 21.84 69 13 C56.13 13 43.26 13 30 13 Z M90 13 C90 21.58 90 30.16 90 39 C103.2 39 116.4 39 130 39 C130 30.42 130 21.84 130 13 C116.8 13 103.6 13 90 13 Z M151 13 C151 21.58 151 30.16 151 39 C163.87 39 176.74 39 190 39 C190 30.42 190 21.84 190 13 C177.13 13 164.26 13 151 13 Z M211 13 C211 21.58 211 30.16 211 39 C226.18 39 241.36 39 257 39 C257 30.42 257 21.84 257 13 C241.82 13 226.64 13 211 13 Z M278 13 C278 21.25 278 29.5 278 38 C290.87 38 303.74 38 317 38 C317 29.75 317 21.5 317 13 C304.13 13 291.26 13 278 13 Z M338 13 C338 21.58 338 30.16 338 39 C351.2 39 364.4 39 378 39 C378 30.42 378 21.84 378 13 C364.8 13 351.6 13 338 13 Z M399 13 C399 21.58 399 30.16 399 39 C411.87 39 424.74 39 438 39 C438 30.42 438 21.84 438 13 C425.13 13 412.26 13 399 13 Z " fill="#000000" transform="translate(24,6)"/>
<path d="M0 0 C2.08393659 1.05787024 4.12179488 2.17692795 6.15869141 3.32275391 C7.83145361 4.23216919 9.50606504 5.13818809 11.18212891 6.04150391 C12.55836426 6.78400391 12.55836426 6.78400391 13.96240234 7.54150391 C19.68357154 10.57199664 25.48749585 13.43933051 31.28369141 16.32275391 C32.56694629 16.96246129 33.85014901 17.60227331 35.13330078 18.2421875 C39.07819238 20.20869909 43.02456206 22.17223268 46.97119141 24.13525391 C52.20164655 26.7368396 57.43128556 29.3400457 62.65869141 31.94775391 C63.28772999 32.26149208 63.91676857 32.57523026 64.56486893 32.89847565 C73.81497395 37.51589793 82.99462809 42.25177498 92.12255859 47.10595703 C95.36863889 48.82851248 98.64421807 50.47809508 101.94775391 52.08837891 C102.73923828 52.48025391 103.53072266 52.87212891 104.34619141 53.27587891 C105.90902592 54.04644315 107.4800509 54.80052757 109.05712891 55.54150391 C111.2025528 56.62141526 113.11059824 57.61644995 114.97119141 59.13525391 C115.99462891 62.43212891 115.99462891 62.43212891 115.97119141 65.13525391 C109.40142695 69.78166252 102.6008291 73.51447756 95.38525391 77.05712891 C93.74065689 77.87446503 93.74065689 77.87446503 92.06283569 78.70831299 C88.57677821 80.43972659 85.08675771 82.16295092 81.59619141 83.88525391 C77.02430392 86.14771082 72.45417219 88.41368214 67.88525391 90.68212891 C66.7674353 91.23687897 65.6496167 91.79162903 64.4979248 92.3631897 C57.24657059 95.97263961 50.05314264 99.67548476 42.89804077 103.47158813 C34.30608003 108.02957988 25.65795998 112.47381761 16.97802734 116.86181641 C15.11581767 117.8064442 13.25649977 118.75679128 11.39990234 119.71240234 C8.66466813 121.11944711 5.92075877 122.50805359 3.17431641 123.89306641 C2.35135071 124.32104523 1.52838501 124.74902405 0.68048096 125.18997192 C-4.04943699 127.54673728 -7.61369257 128.82796567 -13.02880859 128.13525391 C-15.02880859 126.13525391 -15.02880859 126.13525391 -15.27769756 123.92695618 C-15.2771528 123.00223007 -15.27660803 122.07750397 -15.27604675 121.12475586 C-15.28024124 120.06471344 -15.28443573 119.00467102 -15.28875732 117.9125061 C-15.28313782 116.74464569 -15.27751831 115.57678528 -15.27172852 114.37353516 C-15.27457603 112.53449112 -15.27457603 112.53449112 -15.27748108 110.65829468 C-15.28055724 107.29052666 -15.27466503 103.9230027 -15.26452804 100.55526352 C-15.25575873 97.03546036 -15.25750476 93.51566147 -15.25788879 89.99584961 C-15.25695162 84.08428735 -15.24826059 78.17277635 -15.23461914 72.26123047 C-15.21889306 65.42091105 -15.21362101 58.58064781 -15.21435469 51.74031162 C-15.21496454 45.16755453 -15.20986308 38.59481579 -15.20156288 32.02206421 C-15.19802709 29.22146461 -15.19619921 26.4208715 -15.19566917 23.62026978 C-15.19448038 19.71248377 -15.1847773 15.80474474 -15.17407227 11.89697266 C-15.17452545 10.72911224 -15.17497864 9.56125183 -15.17544556 8.35800171 C-15.17118057 7.29795929 -15.16691559 6.23791687 -15.16252136 5.14575195 C-15.16084552 4.22102585 -15.15916967 3.29629974 -15.15744305 2.34355164 C-15.02880859 0.13525391 -15.02880859 0.13525391 -14.02880859 -1.86474609 C-9.1931842 -3.47662089 -4.61860092 -1.96860222 0 0 Z " fill="#1D79CA" transform="translate(225.02880859375,99.86474609375)"/>
<path d="M0 0 C6.6 0 13.2 0 20 0 C21.44069682 4.32209046 22.48898417 8.07070201 23.2890625 12.4921875 C23.48709473 13.5735498 23.68512695 14.65491211 23.88916016 15.76904297 C24.1319873 17.12400879 24.37481445 18.47897461 24.625 19.875 C25.40875 24.20625 26.1925 28.5375 27 33 C27.33 22.11 27.66 11.22 28 0 C34.27 0 40.54 0 47 0 C47 31.68 47 63.36 47 96 C40.73 96 34.46 96 28 96 C25.36 83.46 22.72 70.92 20 58 C19.67 70.54 19.34 83.08 19 96 C12.73 96 6.46 96 0 96 C0 64.32 0 32.64 0 0 Z " fill="#1C77C7" transform="translate(333,342)"/>
<path d="M0 0 C6.27 0 12.54 0 19 0 C19.33 9.9 19.66 19.8 20 30 C21.93131933 21.24977611 21.93131933 21.24977611 23.85913086 12.4987793 C24.22083374 10.86549683 24.22083374 10.86549683 24.58984375 9.19921875 C24.83597412 8.08377686 25.08210449 6.96833496 25.33569336 5.8190918 C26 3 26 3 27 0 C33.27 0 39.54 0 46 0 C46 5.60374601 45.70167737 8.92248775 44.25 14.11328125 C43.88524683 15.45763622 43.52066902 16.80203878 43.15625 18.14648438 C42.58094003 20.22733551 42.00155728 22.30695348 41.41796875 24.38549805 C38.01566069 36.57854849 37.15534989 46.10123008 40.1875 58.5 C40.52152832 59.92143311 40.52152832 59.92143311 40.86230469 61.37158203 C42.51680362 68.30400217 44.35159868 75.1833127 46.38745117 82.01367188 C46.58443604 82.68720703 46.7814209 83.36074219 46.984375 84.0546875 C47.15678711 84.62687012 47.32919922 85.19905273 47.50683594 85.78857422 C48.25558958 89.14610418 48.5733198 92.58655841 49 96 C42.4 96 35.8 96 29 96 C25.3734943 83.10575752 22.67030804 70.12901453 20 57 C19.67 69.87 19.34 82.74 19 96 C12.73 96 6.46 96 0 96 C0 64.32 0 32.64 0 0 Z " fill="#1C77C7" transform="translate(389,342)"/>
<path d="M0 0 C6.27 0 12.54 0 19 0 C19.33 25.74 19.66 51.48 20 78 C22.97 77.505 22.97 77.505 26 77 C27.46538173 74.06923654 27.17866576 71.10298643 27.20532227 67.88818359 C27.22017166 66.79046883 27.22017166 66.79046883 27.23532104 65.670578 C27.26696199 63.24656432 27.29170366 60.82253102 27.31640625 58.3984375 C27.33697354 56.71977218 27.35796995 55.04111207 27.37937927 53.36245728 C27.43462318 48.94018769 27.48402221 44.51787119 27.53222656 40.09552002 C27.58242467 35.58447078 27.63811955 31.07348982 27.69335938 26.5625 C27.80096933 17.70838945 27.90190015 8.85422103 28 0 C34.27 0 40.54 0 47 0 C47.06794519 9.88410862 47.12291355 19.76806053 47.15543652 29.65235043 C47.1710508 34.24268756 47.19221112 38.83285577 47.22631836 43.4230957 C47.25906365 47.85811065 47.27688484 52.29296372 47.28463173 56.72809029 C47.29014813 58.41486723 47.30091998 60.10163594 47.31719017 61.78834343 C47.5100515 82.62237494 47.5100515 82.62237494 40.55859375 91.4921875 C35.87106251 96.02699216 30.36539394 97.24288923 24 97.4375 C16.83321209 97.14572238 10.6796537 96.23881942 5.625 90.8125 C0.81416397 85.0310567 -0.45150452 78.14138381 -0.34057617 70.83984375 C-0.34123329 69.68229332 -0.34123329 69.68229332 -0.34190369 68.50135803 C-0.33983284 65.97980418 -0.31658378 63.45893603 -0.29296875 60.9375 C-0.28736671 59.17773807 -0.28309948 57.41797143 -0.28010559 55.65820312 C-0.26870468 51.04842998 -0.23927892 46.4389448 -0.20599365 41.82928467 C-0.17518978 37.11669814 -0.16157829 32.40406465 -0.14648438 27.69140625 C-0.11440418 18.46079126 -0.0616756 9.23046474 0 0 Z " fill="#1C76C5" transform="translate(279,342)"/>
<path d="M0 0 C2.97922593 -0.02683987 5.95821295 -0.04676037 8.9375 -0.0625 C9.78763672 -0.07087891 10.63777344 -0.07925781 11.51367188 -0.08789062 C12.32255859 -0.09111328 13.13144531 -0.09433594 13.96484375 -0.09765625 C14.7137085 -0.10289307 15.46257324 -0.10812988 16.23413086 -0.11352539 C18 0 18 0 19 1 C19.36868068 2.84714824 19.68273063 4.70527079 19.97265625 6.56640625 C20.13258057 7.57904541 20.29250488 8.59168457 20.45727539 9.63500977 C20.65699951 10.93108154 20.85672363 12.22715332 21.0625 13.5625 C21.701875 17.666875 22.34125 21.77125 23 26 C24.32 17.42 25.64 8.84 27 0 C33.27 0 39.54 0 46 0 C45.40833252 5.32500729 44.83844152 10.28060472 43.80859375 15.4765625 C43.58623047 16.64316406 43.36386719 17.80976563 43.13476562 19.01171875 C42.67413939 21.39871743 42.20553385 23.78419174 41.72851562 26.16796875 C38.65948738 42.47050361 40.43997447 56.18850986 44 72.125 C44.57534708 74.75364112 45.14624233 77.38314537 45.71191406 80.0138855 C46.0616161 81.6346886 46.41740214 83.2541952 46.78027344 84.87210083 C47.62744442 88.7439769 48 91.99440962 48 96 C41.4 96 34.8 96 28 96 C26.35 84.78 24.7 73.56 23 62 C22.195625 66.49625 21.39125 70.9925 20.5625 75.625 C20.31056885 77.03217285 20.0586377 78.4393457 19.79907227 79.88916016 C19.59854248 81.01112793 19.3980127 82.1330957 19.19140625 83.2890625 C18.98717041 84.43068848 18.78293457 85.57231445 18.57250977 86.74853516 C18.03007466 89.82919645 17.5142486 92.91450843 17 96 C10.4 96 3.8 96 -3 96 C-2.00810733 88.41552776 -0.86083815 80.95472585 0.7265625 73.4765625 C0.88010193 72.75305603 1.03364136 72.02954956 1.1918335 71.28411865 C1.82773923 68.30825734 2.47028546 65.33390448 3.11914062 62.36083984 C3.59950769 60.15086426 4.06979777 57.9389181 4.5390625 55.7265625 C4.68590485 55.06806305 4.83274719 54.4095636 4.98403931 53.73110962 C6.53147933 46.38208091 6.17087729 39.86363702 4.6875 32.5 C4.55432373 31.82001953 4.42114746 31.14003906 4.28393555 30.43945312 C3.86307001 28.29148561 3.43279783 26.14559284 3 24 C2.42880487 21.16830332 1.86771759 18.33486779 1.3125 15.5 C0.93544922 13.62828125 0.93544922 13.62828125 0.55078125 11.71875 C-0.04250835 7.71299326 -0.09388427 4.04149409 0 0 Z " fill="#1C77C6" transform="translate(148,342)"/>
<path d="M0 0 C12.54 0 25.08 0 38 0 C38 6.27 38 12.54 38 19 C31.73 19 25.46 19 19 19 C19 24.94 19 30.88 19 37 C24.94 37 30.88 37 37 37 C37 42.94 37 48.88 37 55 C31.06 55 25.12 55 19 55 C19 62.26 19 69.52 19 77 C25.6 77 32.2 77 39 77 C39 83.27 39 89.54 39 96 C26.13 96 13.26 96 0 96 C0 64.32 0 32.64 0 0 Z " fill="#1C77C8" transform="translate(467,342)"/>
<path d="M0 0 C6.6 0 13.2 0 20 0 C20.11342793 9.83228227 20.20496032 19.66412267 20.25906086 29.49691391 C20.28504 34.06378439 20.32022131 38.63018005 20.37719727 43.19677734 C20.43193809 47.61238451 20.46150816 52.02753798 20.47438622 56.44345856 C20.48355128 58.11942934 20.50144664 59.79537821 20.52865028 61.47115326 C20.68360479 71.42164644 20.47301406 80.25023542 15 89 C9.89251316 94.11208938 4.13792919 97.26679573 -3.1875 97.375 C-9.81191149 97.22322777 -15.80413067 95.79225023 -20.88671875 91.3515625 C-25.7609058 85.94628969 -27.25752893 81.25964894 -27.1953125 73.94921875 C-27.1924826 73.29041214 -27.18965271 72.63160553 -27.18673706 71.95283508 C-27.17560924 69.86419938 -27.15051948 67.77600444 -27.125 65.6875 C-27.11496059 64.26498018 -27.10583642 62.8424536 -27.09765625 61.41992188 C-27.07740196 57.94631127 -27.03824196 54.47364461 -27 51 C-20.73 51 -14.46 51 -8 51 C-7.93941406 52.78148437 -7.87882812 54.56296875 -7.81640625 56.3984375 C-7.73201203 58.7239671 -7.64736347 61.04948748 -7.5625 63.375 C-7.52318359 64.550625 -7.48386719 65.72625 -7.44335938 66.9375 C-7.40146484 68.05898438 -7.35957031 69.18046875 -7.31640625 70.3359375 C-7.27974854 71.37282715 -7.24309082 72.4097168 -7.20532227 73.47802734 C-7.15835777 75.99425166 -7.15835777 75.99425166 -6 78 C-3.525 77.505 -3.525 77.505 -1 77 C-0.67 51.59 -0.34 26.18 0 0 Z " fill="#1C76C6" transform="translate(253,342)"/>
<path d="M0 0 C12.87 0 25.74 0 39 0 C39 6.27 39 12.54 39 19 C32.73 19 26.46 19 20 19 C20 23.95 20 28.9 20 34 C25.94 34 31.88 34 38 34 C38 39.94 38 45.88 38 52 C32.06 52 26.12 52 20 52 C20 66.52 20 81.04 20 96 C13.4 96 6.8 96 0 96 C0 64.32 0 32.64 0 0 Z " fill="#1C75C3" transform="translate(33,342)"/>
<path d="M0 0 C6.27 0 12.54 0 19 0 C19 26.4 19 52.8 19 80 C25.6 80 32.2 80 39 80 C39 85.28 39 90.56 39 96 C26.13 96 13.26 96 0 96 C0 64.32 0 32.64 0 0 Z " fill="#1C77C8" transform="translate(78,342)"/>
<path d="M0 0 C6.27 0 12.54 0 19 0 C19 31.68 19 63.36 19 96 C12.73 96 6.46 96 0 96 C0 64.32 0 32.64 0 0 Z " fill="#1C74C2" transform="translate(440,342)"/>
<path d="M0 0 C5.94 0 11.88 0 18 0 C18 31.68 18 63.36 18 96 C12.06 96 6.12 96 0 96 C0 64.32 0 32.64 0 0 Z " fill="#1C78C8" transform="translate(122,342)"/>
</svg>
