<svg xmlns="http://www.w3.org/2000/svg" version="1.1" viewBox="24 6 485 310">
<path d="M0 0 C80.85 0 161.7 0 245 0 C245 59.4 245 118.8 245 180 C164.15 180 83.3 180 0 180 C0 120.6 0 61.2 0 0 Z " fill="#000000" transform="translate(146,71)"/>
<path d="M0 0 C35.64 0 71.28 0 108 0 C108 59.4 108 118.8 108 180 C72.36 180 36.72 180 0 180 C0 120.6 0 61.2 0 0 Z " fill="#000000" transform="translate(25,71)"/>
<path d="M0 0 C34.65 0 69.3 0 105 0 C105 59.4 105 118.8 105 180 C70.35 180 35.7 180 0 180 C0 120.6 0 61.2 0 0 Z " fill="#000000" transform="translate(403,71)"/>
<path d="M0 0 C160.05 0 320.1 0 485 0 C485 4.62 485 9.24 485 14 C476.42 14 467.84 14 459 14 C459 22.25 459 30.5 459 39 C467.58 39 476.16 39 485 39 C485 43.95 485 48.9 485 54 C325.28 54 165.56 54 1 54 C1 49.05 1 44.1 1 39 C3.64 39 6.28 39 9 39 C9 30.75 9 22.5 9 14 C6.03 14 3.06 14 0 14 C0 9.38 0 4.76 0 0 Z M30 14 C30 22.25 30 30.5 30 39 C42.87 39 55.74 39 69 39 C69 30.75 69 22.5 69 14 C56.13 14 43.26 14 30 14 Z M90 14 C90 22.25 90 30.5 90 39 C103.2 39 116.4 39 130 39 C130 30.75 130 22.5 130 14 C116.8 14 103.6 14 90 14 Z M151 14 C151 22.25 151 30.5 151 39 C163.87 39 176.74 39 190 39 C190 30.75 190 22.5 190 14 C177.13 14 164.26 14 151 14 Z M211 14 C211 22.25 211 30.5 211 39 C226.18 39 241.36 39 257 39 C257 30.75 257 22.5 257 14 C241.82 14 226.64 14 211 14 Z M278 14 C278 22.25 278 30.5 278 39 C290.87 39 303.74 39 317 39 C317 30.75 317 22.5 317 14 C304.13 14 291.26 14 278 14 Z M338 14 C338 22.25 338 30.5 338 39 C351.2 39 364.4 39 378 39 C378 30.75 378 22.5 378 14 C364.8 14 351.6 14 338 14 Z M399 14 C399 22.25 399 30.5 399 39 C411.87 39 424.74 39 438 39 C438 30.75 438 22.5 438 14 C425.13 14 412.26 14 399 14 Z " fill="#000000" transform="translate(24,262)"/>
<path d="M0 0 C160.05 0 320.1 0 485 0 C485 4.29 485 8.58 485 13 C476.42 13 467.84 13 459 13 C459 21.58 459 30.16 459 39 C467.58 39 476.16 39 485 39 C485 43.62 485 48.24 485 53 C325.28 53 165.56 53 1 53 C1 48.38 1 43.76 1 39 C3.64 39 6.28 39 9 39 C9 30.42 9 21.84 9 13 C6.03 13 3.06 13 0 13 C0 8.71 0 4.42 0 0 Z M30 13 C30 21.58 30 30.16 30 39 C42.87 39 55.74 39 69 39 C69 30.42 69 21.84 69 13 C56.13 13 43.26 13 30 13 Z M90 13 C90 21.58 90 30.16 90 39 C103.2 39 116.4 39 130 39 C130 30.42 130 21.84 130 13 C116.8 13 103.6 13 90 13 Z M151 13 C151 21.58 151 30.16 151 39 C163.87 39 176.74 39 190 39 C190 30.42 190 21.84 190 13 C177.13 13 164.26 13 151 13 Z M211 13 C211 21.58 211 30.16 211 39 C226.18 39 241.36 39 257 39 C257 30.42 257 21.84 257 13 C241.82 13 226.64 13 211 13 Z M278 13 C278 21.25 278 29.5 278 38 C290.87 38 303.74 38 317 38 C317 29.75 317 21.5 317 13 C304.13 13 291.26 13 278 13 Z M338 13 C338 21.58 338 30.16 338 39 C351.2 39 364.4 39 378 39 C378 30.42 378 21.84 378 13 C364.8 13 351.6 13 338 13 Z M399 13 C399 21.58 399 30.16 399 39 C411.87 39 424.74 39 438 39 C438 30.42 438 21.84 438 13 C425.13 13 412.26 13 399 13 Z " fill="#000000" transform="translate(24,6)"/>
<path d="M0 0 C2.08393659 1.05787024 4.12179488 2.17692795 6.15869141 3.32275391 C7.83145361 4.23216919 9.50606504 5.13818809 11.18212891 6.04150391 C12.55836426 6.78400391 12.55836426 6.78400391 13.96240234 7.54150391 C19.68357154 10.57199664 25.48749585 13.43933051 31.28369141 16.32275391 C32.56694629 16.96246129 33.85014901 17.60227331 35.13330078 18.2421875 C39.07819238 20.20869909 43.02456206 22.17223268 46.97119141 24.13525391 C52.20164655 26.7368396 57.43128556 29.3400457 62.65869141 31.94775391 C63.28772999 32.26149208 63.91676857 32.57523026 64.56486893 32.89847565 C73.81497395 37.51589793 82.99462809 42.25177498 92.12255859 47.10595703 C95.36863889 48.82851248 98.64421807 50.47809508 101.94775391 52.08837891 C102.73923828 52.48025391 103.53072266 52.87212891 104.34619141 53.27587891 C105.90902592 54.04644315 107.4800509 54.80052757 109.05712891 55.54150391 C111.2025528 56.62141526 113.11059824 57.61644995 114.97119141 59.13525391 C115.99462891 62.43212891 115.99462891 62.43212891 115.97119141 65.13525391 C109.40142695 69.78166252 102.6008291 73.51447756 95.38525391 77.05712891 C93.74065689 77.87446503 93.74065689 77.87446503 92.06283569 78.70831299 C88.57677821 80.43972659 85.08675771 82.16295092 81.59619141 83.88525391 C77.02430392 86.14771082 72.45417219 88.41368214 67.88525391 90.68212891 C66.7674353 91.23687897 65.6496167 91.79162903 64.4979248 92.3631897 C57.24657059 95.97263961 50.05314264 99.67548476 42.89804077 103.47158813 C34.30608003 108.02957988 25.65795998 112.47381761 16.97802734 116.86181641 C15.11581767 117.8064442 13.25649977 118.75679128 11.39990234 119.71240234 C8.66466813 121.11944711 5.92075877 122.50805359 3.17431641 123.89306641 C2.35135071 124.32104523 1.52838501 124.74902405 0.68048096 125.18997192 C-4.04943699 127.54673728 -7.61369257 128.82796567 -13.02880859 128.13525391 C-15.02880859 126.13525391 -15.02880859 126.13525391 -15.27769756 123.92695618 C-15.2771528 123.00223007 -15.27660803 122.07750397 -15.27604675 121.12475586 C-15.28024124 120.06471344 -15.28443573 119.00467102 -15.28875732 117.9125061 C-15.28313782 116.74464569 -15.27751831 115.57678528 -15.27172852 114.37353516 C-15.27457603 112.53449112 -15.27457603 112.53449112 -15.27748108 110.65829468 C-15.28055724 107.29052666 -15.27466503 103.9230027 -15.26452804 100.55526352 C-15.25575873 97.03546036 -15.25750476 93.51566147 -15.25788879 89.99584961 C-15.25695162 84.08428735 -15.24826059 78.17277635 -15.23461914 72.26123047 C-15.21889306 65.42091105 -15.21362101 58.58064781 -15.21435469 51.74031162 C-15.21496454 45.16755453 -15.20986308 38.59481579 -15.20156288 32.02206421 C-15.19802709 29.22146461 -15.19619921 26.4208715 -15.19566917 23.62026978 C-15.19448038 19.71248377 -15.1847773 15.80474474 -15.17407227 11.89697266 C-15.17452545 10.72911224 -15.17497864 9.56125183 -15.17544556 8.35800171 C-15.17118057 7.29795929 -15.16691559 6.23791687 -15.16252136 5.14575195 C-15.16084552 4.22102585 -15.15916967 3.29629974 -15.15744305 2.34355164 C-15.02880859 0.13525391 -15.02880859 0.13525391 -14.02880859 -1.86474609 C-9.1931842 -3.47662089 -4.61860092 -1.96860222 0 0 Z " fill="#1D79CA" transform="translate(225.02880859375,99.86474609375)"/>
</svg>